<svg enable-background="new 0 0 128 128" height="128" viewBox="0 0 128 128" width="128" xmlns="http://www.w3.org/2000/svg"><g fill="#282d33"><path d="m128 123.459h-128v-104.3h128zm-124-4h120v-96.3h-120z"/><path d="m128 23.159h-128v-18.618h128zm-124-4h120v-10.618h-120z"/><path d="m7.665 11.744h4.706v4h-4.706z"/><path d="m15.813 11.744h4.708v4h-4.708z"/><path d="m23.959 11.744h4.708v4h-4.708z"/><path d="m24.941 29.664h11.533v4h-11.533z"/><path d="m51.504 29.664h23.596v4h-23.596z"/><path d="m39.796 29.664h5.417v4h-5.417z"/><path d="m28.786 52.136h13.281v4h-13.281z"/><path d="m57.096 52.136h18.003v4h-18.003z"/><path d="m45.25 52.136h8.075v4h-8.075z"/><path d="m75.797 74.607h35.107v4h-35.107z"/><path d="m45.25 74.607h26.178v4h-26.178z"/><path d="m93.49 52.136h20.582v4h-20.582z"/><path d="m80.166 52.136h9.611v4h-9.611z"/><path d="m35.075 63.371h6.992v4h-6.992z"/><path d="m45.25 63.371h26.693v4h-26.693z"/><path d="m91.7 29.664h23.595v4h-23.595z"/><path d="m79.992 29.664h5.418v4h-5.418z"/><path d="m24.941 40.901h46.487v4h-46.487z"/><path d="m24.941 86.029h63.963v4h-63.963z"/><path d="m24.941 97.266h74.083v4h-74.083z"/><path d="m24.941 108.501h32.155v4h-32.155z"/><path d="m11.369 29.664h4.784v4h-4.784z"/><path d="m11.369 40.901h4.784v4h-4.784z"/><path d="m11.369 52.136h4.784v4h-4.784z"/><path d="m11.369 63.371h4.784v4h-4.784z"/><path d="m11.369 74.607h4.784v4h-4.784z"/><path d="m11.369 85.842h4.784v4h-4.784z"/><path d="m11.369 97.079h4.784v4h-4.784z"/><path d="m11.369 108.316h4.784v4h-4.784z"/></g></svg>